<!--?xml version="1.0" standalone="no"?-->
              <svg id="sw-js-blob-svg" viewBox="0 0 100 100" xmlns="http://www.w3.org/2000/svg" version="1.1">
                    <defs> 
                        <linearGradient id="sw-gradient" x1="0" x2="1" y1="1" y2="0">
                            <stop id="stop1" stop-color="rgba(81, 197, 178, 1)" offset="0%"></stop>
                            <stop id="stop2" stop-color="rgba(231.165, 192.236, 127.981, 1)" offset="100%"></stop>
                        </linearGradient>
                    </defs>
                <path fill="url(#sw-gradient)" d="M22.1,-26.9C28.8,-20.7,34.5,-13.9,35.8,-6.3C37.2,1.3,34.2,9.6,30,17.9C25.9,26.2,20.7,34.4,13,38.4C5.3,42.3,-5,42,-12.2,37.6C-19.4,33.2,-23.7,24.7,-28.4,16.4C-33.1,8.2,-38.3,0.3,-38.7,-8.5C-39.2,-17.2,-34.8,-26.8,-27.6,-32.8C-20.3,-38.9,-10.2,-41.5,-1.2,-40.1C7.7,-38.6,15.4,-33,22.1,-26.9Z" width="100%" height="100%" transform="translate(50 50)" stroke-width="0" style="transition: all 0.3s ease 0s;" stroke="url(#sw-gradient)"></path>
              </svg>